<svg xmlns="http://www.w3.org/2000/svg" width="30" height="26" viewBox="0 0 30 26">
    <defs>
        <style>
            .cls-1,.cls-2,.cls-6{fill:none}.cls-2{stroke:#fff;stroke-width:2px}.cls-3,.cls-5{fill:#fff}.cls-4,.cls-5{stroke:none}
        </style>
    </defs>
    <g id="btn_photo_w" transform="translate(1 -473)">
        <g id="패스_331" class="cls-1" data-name="패스 331">
            <path d="M0 54.106V68.24a3.794 3.794 0 0 0 3.661 3.91h22.678A3.794 3.794 0 0 0 30 68.24V54.106a3.61 3.61 0 0 0-3.484-3.72h-3l-.116-.543a4.522 4.522 0 0 0-4.359-3.694h-8.089a4.532 4.532 0 0 0-4.359 3.694l-.116.543H3.484A3.614 3.614 0 0 0 0 54.106z" class="cls-4" transform="translate(-1 426.85)"/>
            <path d="M10.952 48.15c-1.142 0-2.13.871-2.405 2.119l-.115.537-.34 1.58H3.485c-.805 0-1.484.788-1.484 1.72V68.24c0 1.053.745 1.91 1.661 1.91H26.34c.916 0 1.661-.857 1.661-1.91V54.106c0-.948-.666-1.72-1.484-1.72h-4.615l-.339-1.58-.115-.539c-.27-1.246-1.259-2.117-2.405-2.117h-8.09m0-2h8.09c2.094 0 3.888 1.517 4.36 3.694l.116.542h2.998c1.923 0 3.484 1.667 3.484 3.72V68.24c0 2.158-1.64 3.91-3.661 3.91H3.66C1.641 72.15 0 70.398 0 68.24V54.106c0-2.046 1.561-3.72 3.484-3.72h2.992l.116-.542c.478-2.177 2.272-3.694 4.36-3.694z" class="cls-5" transform="translate(-1 426.85)"/>
        </g>
        <g id="타원_88" class="cls-2" data-name="타원 88" transform="translate(7 480)">
            <circle cx="7" cy="7" r="7" class="cls-4"/>
            <circle cx="7" cy="7" r="6" class="cls-6"/>
        </g>
        <circle id="타원_89" cx="1.5" cy="1.5" r="1.5" class="cls-3" data-name="타원 89" transform="translate(4 481.24)"/>
    </g>
</svg>
